<?xml version="1.0" encoding="UTF-8"?>
<svg id="Layer_1" data-name="Layer 1" xmlns="http://www.w3.org/2000/svg" viewBox="0 0 704.26 242.09">
  <defs>
    <style>
      .cls-1 {
        fill: #000;
      }
    </style>
  </defs>
  <g>
    <path class="cls-1" d="m308.6,105.92l6.17-1.54V38.61l-6.17-1.54v-1.54h29.29v1.54l-6.17,1.54v32.27l25.18-30.73-7.71-3.08v-1.54h19.53v1.54l-8.22,3.08-17.99,22.1,27.75,42.14,5.14,1.54v1.54h-14.39c-3.08,0-5.71-.77-7.86-2.31s-4.16-3.68-6.01-6.42l-15.42-23.64v29.29l6.17,1.54v1.54h-29.29v-1.54Z"/>
    <path class="cls-1" d="m378.48,105.92l6.17-1.54v-45.22l-6.17-1.54v-1.54h13.36c6.17,0,9.25,3.08,9.25,9.25v39.05l6.17,1.54v1.54h-28.78v-1.54Zm8.22-58.07c-1.37-1.37-2.05-3.08-2.05-5.14s.68-3.77,2.05-5.14c1.37-1.37,3.08-2.06,5.14-2.06s3.77.69,5.14,2.06c1.37,1.37,2.06,3.08,2.06,5.14s-.69,3.77-2.06,5.14c-1.37,1.37-3.08,2.06-5.14,2.06s-3.77-.68-5.14-2.06Z"/>
    <path class="cls-1" d="m428.37,106.54c-3.32-1.64-5.88-3.91-7.66-6.78-1.78-2.88-2.67-6.13-2.67-9.76v-31.34h-7.19v-2.57h7.19v-5.14c0-6.17,3.08-9.25,9.25-9.25h7.19v14.39h14.39v2.57h-14.39v31.34c0,6.3.65,10.62,1.95,12.95,1.3,2.33,3.22,3.49,5.75,3.49s4.62-1.2,6.47-3.6c1.85-2.4,2.77-5.65,2.77-9.76h2.57c0,5.07-1.27,8.99-3.8,11.77-2.54,2.77-5.89,4.16-10.07,4.16-4.52,0-8.44-.82-11.77-2.47Z"/>
    <path class="cls-1" d="m466.96,101.76c-4.87-4.83-7.3-11.49-7.3-19.99s2.43-15.16,7.3-19.99c4.86-4.83,11.68-7.25,20.45-7.25,6.3,0,11.05,1.1,14.23,3.29,3.19,2.19,4.78,4.87,4.78,8.02,0,2.33-.7,4.2-2.11,5.6-1.41,1.4-3.27,2.11-5.6,2.11-.96,0-1.92-.07-2.88-.21l-1.23-.31v-15.42l-1.44-.51c-1.03-.34-2.26-.51-3.7-.51-3.91,0-6.94,1.85-9.09,5.55s-3.24,10.24-3.24,19.63,1.08,15.5,3.24,19.17c2.16,3.67,5.19,5.5,9.09,5.5,2.67,0,5.16-.63,7.45-1.9,2.29-1.27,4.11-2.94,5.45-5.04,1.34-2.09,2-4.23,2-6.42h2.57c0,2.74-.82,5.34-2.47,7.81-1.64,2.47-3.94,4.44-6.89,5.91-2.95,1.47-6.34,2.21-10.17,2.21-8.77,0-15.59-2.42-20.45-7.25Z"/>
    <path class="cls-1" d="m514.13,105.92l6.17-1.54V38.61l-6.17-1.54v-1.54h13.36c6.17,0,9.25,3.08,9.25,9.25v16.44c1.03-1.37,2.09-2.47,3.19-3.29,2.95-2.26,6.34-3.39,10.17-3.39s7.28.81,10.33,2.42c3.05,1.61,5.43,3.72,7.14,6.32,1.71,2.6,2.57,5.34,2.57,8.22v32.89l6.17,1.54v1.54h-13.36c-6.17,0-9.25-3.08-9.25-9.25v-26.72c0-4.32-.77-7.62-2.31-9.92-1.54-2.29-3.34-3.44-5.4-3.44-2.6,0-4.93,1.37-6.99,4.11-.89,1.17-1.64,2.54-2.26,4.11v38.03l6.17,1.54v1.54h-28.78v-1.54Z"/>
    <path class="cls-1" d="m589.77,101.76c-4.87-4.83-7.3-11.49-7.3-19.99,0-5.55,1.06-10.38,3.19-14.49,2.12-4.11,5.09-7.26,8.89-9.45,3.8-2.19,8.17-3.29,13.1-3.29s9.26.92,13,2.77c3.73,1.85,6.61,4.33,8.63,7.45,2.02,3.12,3.03,6.56,3.03,10.33,0,1.71-.17,3.19-.51,4.42l-.51,1.75c-2.95.62-6.13,1.13-9.56,1.54-7.19,1.03-14.46,1.54-21.79,1.54,0,7.95,1.09,13.62,3.29,17.01,2.19,3.39,5.21,5.09,9.04,5.09,2.67,0,5.16-.63,7.45-1.9,2.29-1.27,4.11-2.94,5.45-5.04,1.34-2.09,2-4.23,2-6.42h2.57c0,2.74-.82,5.34-2.47,7.81-1.64,2.47-3.94,4.44-6.89,5.91-2.95,1.47-6.34,2.21-10.17,2.21-8.77,0-15.59-2.42-20.45-7.25Zm20.86-20.5c1.17-.07,2.4-.24,3.7-.51.07-.34.24-1.1.51-2.26.34-1.71.51-3.53.51-5.45,0-5.69-.75-9.85-2.26-12.49-1.51-2.64-3.32-3.96-5.45-3.96-5.14,0-7.71,8.39-7.71,25.18,4.38,0,7.95-.17,10.69-.51Z"/>
    <path class="cls-1" d="m640.03,105.92l6.17-1.54v-45.22l-6.17-1.54v-1.54h9.25c4.04,0,7.23,1.3,9.56,3.91.89,1.03,1.64,2.3,2.26,3.8.96-1.78,2.09-3.32,3.39-4.62,3.08-3.08,6.92-4.62,11.51-4.62,3.84,0,7.28.81,10.33,2.42,3.05,1.61,5.43,3.72,7.14,6.32,1.71,2.6,2.57,5.34,2.57,8.22v32.89l6.17,1.54v1.54h-13.36c-6.17,0-9.25-3.08-9.25-9.25v-26.72c0-4.32-.77-7.62-2.31-9.92-1.54-2.29-3.34-3.44-5.4-3.44-2.6,0-4.93,1.37-6.99,4.11-.89,1.17-1.64,2.54-2.26,4.11v38.03l6.17,1.54v1.54h-28.78v-1.54Z"/>
    <path class="cls-1" d="m317.33,202.01c-6.17-6.51-9.25-15.76-9.25-27.75,0-7.88,1.35-14.65,4.06-20.3,2.71-5.65,6.51-9.93,11.41-12.85,4.9-2.91,10.57-4.37,17.01-4.37,3.91,0,7.84,1.13,11.82,3.39,1.51.82,3.01,1.92,4.52,3.29,1.16-1.78,2.36-3.19,3.6-4.21,1.23-.89,1.92-1.37,2.06-1.44h2.57v19.53h-4.11c-.89-3.29-2.23-6.27-4.01-8.94-1.64-2.6-3.68-4.76-6.11-6.47-2.43-1.71-5.23-2.57-8.38-2.57-4.73,0-8.65,2.74-11.77,8.22-3.12,5.48-4.68,14.39-4.68,26.72s1.7,21.5,5.09,26.88c3.39,5.38,8.03,8.07,13.93,8.07,3.22,0,6.29-.91,9.2-2.72,2.91-1.81,5.28-4.23,7.09-7.25,1.81-3.01,2.72-6.2,2.72-9.56h2.57c0,3.91-1.05,7.55-3.13,10.95-2.09,3.39-4.93,6.1-8.53,8.12s-7.59,3.03-11.97,3.03c-10.96,0-19.53-3.25-25.69-9.76Z"/>
    <path class="cls-1" d="m380.33,207.87c-3.29-2.6-4.93-5.93-4.93-9.97,0-2.67.58-5.31,1.75-7.91.48-1.23,1.09-2.36,1.85-3.39,2.81-.68,5.86-1.3,9.15-1.85,7.4-1.23,13.94-1.99,19.63-2.26v-3.08c0-7.6-.93-12.85-2.78-15.72-1.85-2.88-4.69-4.32-8.53-4.32-1.44,0-2.67.17-3.7.51l-1.44.51v15.42l-1.34.31c-1.1.14-2.02.21-2.78.21-2.33,0-4.2-.7-5.6-2.11-1.41-1.4-2.11-3.27-2.11-5.6,0-3.15,1.59-5.82,4.78-8.02,3.19-2.19,7.93-3.29,14.23-3.29,5.34,0,9.95.94,13.82,2.83,3.87,1.89,6.82,4.49,8.84,7.81,2.02,3.32,3.03,7.14,3.03,11.46v27.75l6.17,1.54v1.54h-9.25c-4.11,0-7.3-1.27-9.56-3.8-.96-1.03-1.71-2.33-2.26-3.91-.96,1.71-2.09,3.25-3.39,4.62-3.08,3.08-6.92,4.62-11.51,4.62-6.1,0-10.79-1.3-14.08-3.91Zm25.08-3.8c.75-1.03,1.54-2.4,2.36-4.11v-14.9c-3.15,0-6.17.17-9.04.51-2.12.27-3.56.45-4.32.51-.34.75-.69,1.78-1.03,3.08-.69,2.61-1.03,5.17-1.03,7.71,0,3.84.58,6.68,1.75,8.53,1.16,1.85,2.64,2.77,4.42,2.77,2.53,0,4.83-1.37,6.89-4.11Z"/>
    <path class="cls-1" d="m443.84,204.53c-4.87-4.83-7.3-11.49-7.3-19.99s2.43-15.16,7.3-19.99c4.86-4.83,11.68-7.25,20.45-7.25,6.3,0,11.05,1.1,14.23,3.29,3.19,2.19,4.78,4.87,4.78,8.02,0,2.33-.7,4.2-2.11,5.6s-3.27,2.11-5.6,2.11c-.96,0-1.92-.07-2.88-.21l-1.23-.31v-15.42l-1.44-.51c-1.03-.34-2.26-.51-3.7-.51-3.91,0-6.94,1.85-9.09,5.55-2.16,3.7-3.24,10.24-3.24,19.63s1.08,15.5,3.24,19.17c2.16,3.67,5.19,5.5,9.09,5.5,2.67,0,5.16-.63,7.45-1.9,2.29-1.27,4.11-2.95,5.45-5.04,1.34-2.09,2-4.23,2-6.42h2.57c0,2.74-.82,5.34-2.47,7.81s-3.94,4.44-6.89,5.91c-2.95,1.47-6.34,2.21-10.17,2.21-8.77,0-15.59-2.42-20.45-7.25Z"/>
    <path class="cls-1" d="m491.01,208.69l6.17-1.54v-65.77l-6.17-1.54v-1.54h13.36c6.17,0,9.25,3.08,9.25,9.25v16.44c1.03-1.37,2.09-2.47,3.19-3.29,2.95-2.26,6.34-3.39,10.17-3.39s7.28.81,10.33,2.42c3.05,1.61,5.43,3.72,7.14,6.32,1.71,2.6,2.57,5.34,2.57,8.22v32.89l6.17,1.54v1.54h-13.36c-6.17,0-9.25-3.08-9.25-9.25v-26.72c0-4.32-.77-7.62-2.31-9.92-1.54-2.29-3.34-3.44-5.4-3.44-2.6,0-4.93,1.37-6.99,4.11-.89,1.17-1.64,2.54-2.26,4.11v38.03l6.17,1.54v1.54h-28.78v-1.54Z"/>
    <path class="cls-1" d="m566.65,204.53c-4.87-4.83-7.3-11.49-7.3-19.99,0-5.55,1.06-10.38,3.19-14.49,2.12-4.11,5.09-7.26,8.89-9.46,3.8-2.19,8.17-3.29,13.1-3.29s9.26.92,13,2.77c3.73,1.85,6.61,4.33,8.63,7.45,2.02,3.12,3.03,6.56,3.03,10.33,0,1.71-.17,3.19-.51,4.42l-.51,1.75c-2.95.62-6.13,1.13-9.56,1.54-7.19,1.03-14.46,1.54-21.79,1.54,0,7.95,1.09,13.62,3.29,17.01,2.19,3.39,5.21,5.09,9.04,5.09,2.67,0,5.16-.63,7.45-1.9,2.29-1.27,4.11-2.95,5.45-5.04,1.34-2.09,2-4.23,2-6.42h2.57c0,2.74-.82,5.34-2.47,7.81s-3.94,4.44-6.89,5.91c-2.95,1.47-6.34,2.21-10.17,2.21-8.77,0-15.59-2.42-20.45-7.25Zm20.86-20.5c1.17-.07,2.4-.24,3.7-.51.07-.34.24-1.09.51-2.26.34-1.71.51-3.53.51-5.45,0-5.69-.75-9.85-2.26-12.49-1.51-2.64-3.32-3.96-5.45-3.96-5.14,0-7.71,8.39-7.71,25.18,4.38,0,7.95-.17,10.69-.51Z"/>
  </g>
  <path class="cls-1" d="m253.26,114.52h-8.07v-23.49h-26.38l-22.12-67.4c-2.5-7.62-10.73-11.79-18.36-9.29l-23.05,7.57v-7.36c0-8.02-6.52-14.55-14.55-14.55h-29.12c-2.19,0-4.26.5-6.13,1.37-1.86-.87-3.94-1.37-6.13-1.37h-34.64c-8.02,0-14.55,6.52-14.55,14.55v76.48H16.15v23.49h-8.08c-4.46,0-8.07,3.62-8.07,8.07s3.62,8.08,8.07,8.08h8.08v78.12c0,16.83,13.69,30.53,30.53,30.53h167.98c16.83,0,30.53-13.7,30.53-30.53v-78.12h8.07c4.46,0,8.07-3.62,8.07-8.08s-3.62-8.07-8.07-8.07ZM181.84,30.19l19.97,60.84h-27.27l-17.32-52.76,24.62-8.08Zm-42.71,60.84h-25.22V16.15h25.22v74.88ZM66.33,16.15h30.74v74.88h-30.74V16.15Zm162.71,192.63c0,7.93-6.45,14.38-14.38,14.38H46.68c-7.93,0-14.38-6.45-14.38-14.38v-101.61h196.73v101.61Z"/>
</svg>